<svg fill="none" height="48" width="190" xmlns="http://www.w3.org/2000/svg"><clipPath id="a"><path d="M0 0h190v48H0z"/></clipPath><g clip-path="url(#a)"><path d="M47.67 25.82v5.947H46V16.21h5.497c1.732 0 3.054.412 3.966 1.236.928.824 1.391 2.014 1.391 3.569s-.463 2.744-1.391 3.568c-.912.824-2.234 1.236-3.966 1.236zm0-1.61h3.618c.866 0 1.554-.093 2.064-.28.526-.187.92-.435 1.183-.746.263-.327.433-.677.51-1.05.093-.373.14-.746.14-1.12s-.047-.746-.14-1.119a2.295 2.295 0 0 0-.51-1.026c-.263-.327-.657-.583-1.183-.77-.51-.187-1.198-.28-2.064-.28H47.67zm12.554 7.557V16.21h6.355c3.046 0 4.57 1.508 4.57 4.525 0 1.181-.318 2.192-.952 3.032-.634.824-1.484 1.337-2.551 1.54l4.198 6.46h-1.971l-4.036-6.274h-3.943v6.274zm1.67-7.86h3.92c1.283 0 2.21-.257 2.783-.77.587-.529.881-1.29.881-2.286 0-.933-.216-1.671-.65-2.215-.432-.56-1.244-.84-2.435-.84h-4.499zM80.622 32c-4.623 0-6.935-2.667-6.935-8s2.312-8 6.935-8c4.639 0 6.958 2.667 6.958 8s-2.32 8-6.958 8zm0-1.586c1.84 0 3.17-.513 3.99-1.54.834-1.041 1.252-2.666 1.252-4.874s-.418-3.825-1.253-4.851c-.82-1.042-2.15-1.563-3.99-1.563-1.824 0-3.153.52-3.988 1.563-.82 1.026-1.23 2.643-1.23 4.851s.41 3.833 1.23 4.875c.835 1.026 2.164 1.539 3.989 1.539zm11.985-4.595v5.948h-1.67V16.21h5.497c1.732 0 3.054.412 3.966 1.236.928.824 1.392 2.014 1.392 3.569s-.464 2.744-1.392 3.568c-.912.824-2.234 1.236-3.966 1.236zm0-1.61h3.618c.866 0 1.554-.092 2.064-.279.526-.187.92-.435 1.183-.746.263-.327.433-.677.51-1.05.093-.373.14-.746.14-1.12s-.047-.746-.14-1.119a2.295 2.295 0 0 0-.51-1.026c-.263-.327-.657-.583-1.183-.77-.51-.187-1.198-.28-2.064-.28h-3.618zm12.554 7.558V16.21h9.765v1.586h-8.095v5.364h7.12v1.633h-7.12v5.388h8.095v1.586zm13.476 0V16.21h6.356c3.046 0 4.569 1.508 4.569 4.525 0 1.181-.317 2.192-.951 3.032-.634.824-1.485 1.337-2.552 1.54l4.198 6.46h-1.971l-4.035-6.274h-3.943v6.274zm1.671-7.86h3.919c1.284 0 2.212-.257 2.783-.77.588-.529.882-1.29.882-2.286 0-.933-.216-1.671-.65-2.215-.432-.56-1.244-.84-2.435-.84h-4.499zM139.857 32c-2.381 0-4.175-.676-5.381-2.03-1.191-1.352-1.787-3.35-1.787-5.993 0-5.318 2.39-7.977 7.168-7.977.85 0 1.684.085 2.504.257.82.17 1.609.435 2.367.793v1.749a18.104 18.104 0 0 0-2.274-.84 7.965 7.965 0 0 0-2.412-.373c-1.963 0-3.402.52-4.314 1.563-.913 1.026-1.368 2.635-1.368 4.828 0 2.208.455 3.832 1.368 4.874.912 1.027 2.351 1.54 4.314 1.54 1.237 0 2.42-.187 3.548-.56v-4.432h-3.733v-1.632h5.404v7.02c-1.671.809-3.471 1.213-5.404 1.213zm7.828-.233 6.169-15.557h1.67l6.146 15.557h-1.786l-1.855-4.852h-6.68l-1.855 4.852zm4.291-6.46h5.427l-2.714-7.115zm14.704 6.46V17.796h-5.473V16.21H173.8v1.586h-5.45v13.97zm9.557 0V16.21H186v1.586h-8.094v5.364h7.121v1.633h-7.121v5.388H186v1.586z" fill="#232b30"/><path d="m.907 45.09-.862-.28a.906.906 0 0 0 1.59.825zm10.13-10.103-.893.16a.91.91 0 0 0 1.173.705zm10.936.202-.32.851a.906.906 0 0 0 1.07-.338zm15.12-10.254-.511.75c.332.228.773.209 1.084-.046s.419-.683.264-1.055zm-3.175-7.628.837-.35a.907.907 0 0 0-.837-.56zm-2.067 0v-.91a.905.905 0 0 0-.604.232zm-7.56 3.586.9.125a.91.91 0 0 0-.062-.476zM16.784 2.91l.836-.35a.907.907 0 0 0-1.669-.011zm-7.66 17.732-.833-.362a.911.911 0 0 0-.067.48zm-2.067 6.062L6.96 25.8a.907.907 0 0 0-.739.55zM6.29 28.52l-.836-.353a.903.903 0 0 0-.027.072zM1.634 45.634l9.626-12.932-1.454-1.087L.18 44.547zM9.64 32.318l.504 2.83 1.786-.32-.504-2.83zm1.677 3.534 5.594-1.818-.56-1.73-5.594 1.818zm4.994-1.833 5.342 2.021.64-1.701-5.341-2.021zm6.411 1.683 9.576-14.043-1.498-1.026-9.575 14.043zm8.316-13.805 5.544 3.789 1.022-1.503-5.544-3.788zm6.892 2.687-3.175-7.628-1.674.7 3.175 7.629zm-4.012-8.187H31.85v1.819h2.067zm-2.671.232-8.064 7.224 1.21 1.355 8.063-7.223zm-6.56 8.027.503-3.638-1.797-.25-.504 3.637zm.442-4.114-7.51-17.984-1.673.702 7.509 17.984zM15.95 2.548 8.29 20.279l1.665.723 7.66-17.731zM8.223 20.759l.756 5.76 1.799-.238-.756-5.759zm1.558 4.736L6.96 25.8l.193 1.808 2.823-.303zm23.365-8.667-2.368 3.84 1.543.956 2.368-3.84zm-24.17 9.675.656 5.758 1.803-.206-.656-5.759zm-2.756-.154-.766 1.819 1.671.707.767-1.819zm-.793 1.89L.045 44.81l1.725.563 5.382-16.57zm5.696 3.228L6.879 27.83 5.7 29.212l4.244 3.638zm6.416 1.705.013-3.435-1.814-.007-.014 3.435zm.013-3.434.138-26.824-1.815-.01-.137 26.825zm-8.074-2.522 6.767 3.334.8-1.632-6.767-3.334zM8.424 21.22l7.522 9.093 1.397-1.16L9.82 20.06zm15.182-.923-7.647 8.84 1.371 1.191 7.647-8.84zm-.71 4.064-.408 2.172 1.783.337.408-2.172zm-.411 2.192-1.406 8.486 1.79.298 1.406-8.486zm-5.469 4.01 6.735-3.032-.743-1.659-6.735 3.031z" fill="#ffc22d"/></g></svg>